<svg xmlns="http://www.w3.org/2000/svg" style="background-color:transparent" width="942" height="1074" viewBox="0 0 942 1074" role="img" aria-label="Restaurant serving logo with transparent background">
  <title>Restaurant serving logo with transparent background</title>
  <defs>
    <filter id="halo" x="-20%" y="-20%" width="140%" height="140%">
      <feGaussianBlur stdDeviation="12"></feGaussianBlur>
    </filter>
  </defs>
  <path d="M 840 58 L 822 52 L 765 54 L 753 57 L 742 62 L 728 65 L 723 69 L 711 74 L 699 85 L 694 93 L 694 103 L 704 113 L 719 117 L 733 117 L 740 120 L 753 120 L 785 125 L 792 130 L 794 140 L 782 151 L 771 155 L 762 161 L 745 165 L 734 170 L 719 172 L 701 179 L 671 183 L 657 188 L 621 191 L 608 194 L 541 194 L 521 190 L 498 188 L 480 181 L 466 179 L 454 172 L 445 170 L 436 164 L 423 161 L 413 155 L 398 151 L 383 144 L 372 142 L 360 136 L 347 134 L 329 127 L 308 125 L 292 120 L 266 117 L 199 117 L 185 120 L 179 124 L 165 128 L 155 137 L 153 141 L 151 153 L 152 168 L 163 189 L 172 201 L 179 207 L 183 213 L 189 217 L 200 230 L 209 234 L 229 249 L 248 259 L 258 261 L 268 267 L 312 278 L 370 280 L 388 283 L 445 283 L 447 281 L 459 278 L 464 274 L 453 267 L 441 262 L 428 260 L 408 253 L 390 251 L 371 244 L 349 241 L 332 235 L 314 233 L 304 228 L 287 224 L 275 217 L 264 215 L 257 209 L 248 205 L 238 195 L 234 184 L 245 171 L 256 168 L 266 163 L 290 159 L 318 159 L 324 161 L 340 162 L 351 168 L 364 171 L 373 177 L 393 180 L 407 187 L 426 189 L 448 196 L 471 198 L 482 201 L 489 201 L 495 204 L 507 204 L 513 206 L 571 207 L 582 210 L 615 210 L 620 208 L 686 205 L 711 198 L 732 196 L 749 189 L 765 186 L 773 181 L 787 178 L 798 171 L 809 168 L 832 152 L 839 139 L 838 131 L 834 123 L 830 119 L 821 115 L 816 110 L 804 107 L 791 100 L 779 98 L 762 91 L 750 89 L 747 84 L 762 73 L 785 70 L 806 63 L 824 62 Z" fill="#EFEFEF" filter="url(#halo)" opacity="1" data-index="0"></path>
  <path d="M 747 733 L 738 730 L 732 723 L 516 724 L 515 727 L 510 731 L 492 732 L 479 744 L 475 745 L 454 763 L 449 765 L 444 771 L 438 773 L 430 780 L 420 783 L 415 788 L 408 791 L 389 793 L 382 797 L 372 797 L 367 794 L 346 789 L 342 785 L 331 780 L 325 774 L 319 771 L 307 759 L 305 754 L 298 747 L 288 732 L 197 731 L 195 743 L 198 751 L 202 754 L 207 765 L 212 769 L 214 776 L 222 786 L 224 793 L 229 798 L 233 808 L 239 813 L 243 824 L 249 831 L 252 846 L 256 853 L 262 887 L 266 896 L 269 918 L 267 931 L 262 936 L 259 943 L 251 953 L 249 960 L 243 966 L 239 976 L 233 983 L 231 989 L 226 994 L 221 1006 L 216 1012 L 219 1015 L 225 1017 L 257 1017 L 262 1019 L 295 1019 L 303 1016 L 317 1015 L 364 1016 L 372 1020 L 380 1020 L 385 1016 L 385 1012 L 378 1011 L 373 1005 L 373 1000 L 380 990 L 399 979 L 425 955 L 439 946 L 459 928 L 464 926 L 469 920 L 474 918 L 481 911 L 489 907 L 506 893 L 513 890 L 519 884 L 527 880 L 533 874 L 541 871 L 546 866 L 556 861 L 559 857 L 582 844 L 588 838 L 597 835 L 602 830 L 627 817 L 633 811 L 643 808 L 648 803 L 656 801 L 668 793 L 677 791 L 686 784 L 714 780 L 719 777 L 737 772 L 747 760 Z M 690 741 L 695 737 L 723 737 L 729 742 L 729 751 L 725 755 L 710 761 L 699 762 L 694 759 Z M 671 750 L 669 753 L 659 757 L 654 762 L 646 764 L 634 772 L 625 774 L 616 781 L 605 784 L 600 789 L 588 794 L 584 798 L 574 801 L 567 807 L 558 810 L 552 816 L 541 820 L 538 824 L 514 838 L 510 843 L 502 847 L 483 864 L 477 871 L 474 880 L 466 891 L 465 895 L 444 916 L 425 929 L 401 951 L 393 955 L 389 960 L 380 964 L 374 970 L 369 972 L 363 978 L 354 982 L 348 988 L 342 990 L 336 996 L 321 1001 L 280 1001 L 275 999 L 255 999 L 251 996 L 251 991 L 259 981 L 261 974 L 267 968 L 271 958 L 277 952 L 278 947 L 285 938 L 288 931 L 289 920 L 287 914 L 286 899 L 278 872 L 277 853 L 272 841 L 269 824 L 261 814 L 258 804 L 253 800 L 250 792 L 244 786 L 240 775 L 235 771 L 232 762 L 226 756 L 224 752 L 224 746 L 227 741 L 265 741 L 268 745 L 275 749 L 277 755 L 283 760 L 285 765 L 293 773 L 297 780 L 312 792 L 317 794 L 322 800 L 341 810 L 360 813 L 367 816 L 390 817 L 403 811 L 422 809 L 442 802 L 465 799 L 480 792 L 494 790 L 505 784 L 519 782 L 529 776 L 540 774 L 548 771 L 553 767 L 566 764 L 573 759 L 586 754 L 592 749 L 607 745 L 615 739 L 629 737 L 652 737 L 662 740 L 665 745 Z M 564 740 L 564 742 L 560 745 L 548 747 L 537 754 L 523 757 L 517 762 L 494 766 L 489 771 L 481 770 L 481 768 L 486 766 L 492 758 L 498 755 L 506 747 L 510 746 L 517 739 L 532 736 L 557 736 L 561 737 Z" fill="#EFEFEF" filter="url(#halo)" opacity="1" data-index="1"></path>
  <path d="M 840 58 L 822 52 L 765 54 L 753 57 L 742 62 L 728 65 L 723 69 L 711 74 L 699 85 L 694 93 L 694 103 L 704 113 L 719 117 L 733 117 L 740 120 L 753 120 L 785 125 L 792 130 L 794 140 L 782 151 L 771 155 L 762 161 L 745 165 L 734 170 L 719 172 L 701 179 L 671 183 L 657 188 L 621 191 L 608 194 L 541 194 L 521 190 L 498 188 L 480 181 L 466 179 L 454 172 L 445 170 L 436 164 L 423 161 L 413 155 L 398 151 L 383 144 L 372 142 L 360 136 L 347 134 L 329 127 L 308 125 L 292 120 L 266 117 L 199 117 L 185 120 L 179 124 L 165 128 L 155 137 L 153 141 L 151 153 L 152 168 L 163 189 L 172 201 L 179 207 L 183 213 L 189 217 L 200 230 L 209 234 L 229 249 L 248 259 L 258 261 L 268 267 L 312 278 L 370 280 L 388 283 L 445 283 L 447 281 L 459 278 L 464 274 L 453 267 L 441 262 L 428 260 L 408 253 L 390 251 L 371 244 L 349 241 L 332 235 L 314 233 L 304 228 L 287 224 L 275 217 L 264 215 L 257 209 L 248 205 L 238 195 L 234 184 L 245 171 L 256 168 L 266 163 L 290 159 L 318 159 L 324 161 L 340 162 L 351 168 L 364 171 L 373 177 L 393 180 L 407 187 L 426 189 L 448 196 L 471 198 L 482 201 L 489 201 L 495 204 L 507 204 L 513 206 L 571 207 L 582 210 L 615 210 L 620 208 L 686 205 L 711 198 L 732 196 L 749 189 L 765 186 L 773 181 L 787 178 L 798 171 L 809 168 L 832 152 L 839 139 L 838 131 L 834 123 L 830 119 L 821 115 L 816 110 L 804 107 L 791 100 L 779 98 L 762 91 L 750 89 L 747 84 L 762 73 L 785 70 L 806 63 L 824 62 Z" fill="#8A8A8A" fill-rule="evenodd" data-index="2"></path>
  <path d="M 411 319 L 411 346 L 413 360 L 424 357 L 426 337 L 431 332 L 452 330 L 516 330 L 521 335 L 521 357 L 528 359 L 537 359 L 537 319 L 534 316 L 416 315 Z" fill="#8A8A8A" fill-rule="evenodd" data-index="3"></path>
  <path d="M 826 237 L 824 230 L 821 227 L 806 218 L 797 216 L 709 215 L 663 218 L 642 223 L 595 227 L 579 232 L 547 235 L 519 242 L 489 245 L 483 247 L 500 250 L 504 252 L 536 252 L 548 254 L 551 256 L 564 256 L 606 262 L 610 265 L 615 275 L 597 287 L 589 288 L 582 291 L 581 298 L 584 300 L 643 300 L 648 298 L 698 297 L 705 295 L 714 296 L 733 290 L 763 286 L 777 280 L 788 278 L 796 272 L 807 268 L 811 263 L 817 259 L 819 253 L 824 248 Z" fill="#8A8A8A" fill-rule="evenodd" data-index="4"></path>
  <path d="M 915 673 L 905 671 L 760 670 L 27 671 L 23 672 L 18 678 L 25 682 L 42 685 L 52 691 L 69 694 L 79 700 L 92 702 L 104 709 L 121 712 L 131 718 L 148 721 L 154 725 L 199 726 L 209 720 L 273 720 L 281 723 L 285 727 L 493 729 L 512 717 L 528 712 L 554 711 L 567 715 L 680 715 L 691 717 L 734 717 L 741 720 L 745 727 L 748 728 L 758 724 L 772 724 L 784 720 L 800 718 L 818 710 L 832 708 L 845 702 L 860 699 L 868 694 L 882 691 L 899 683 L 915 681 Z" fill="#E08A47" fill-rule="evenodd" data-index="5"></path>
  <path d="M 186 629 L 187 638 L 191 644 L 345 644 L 356 638 L 359 633 L 389 603 L 435 565 L 441 558 L 446 556 L 453 549 L 458 547 L 467 539 L 473 537 L 478 532 L 488 529 L 498 522 L 506 520 L 526 520 L 533 522 L 545 535 L 549 555 L 557 564 L 563 566 L 584 565 L 606 558 L 626 556 L 639 549 L 648 547 L 660 538 L 671 525 L 675 507 L 671 488 L 665 479 L 662 469 L 657 465 L 653 457 L 648 453 L 634 433 L 626 426 L 628 422 L 632 421 L 672 454 L 697 487 L 702 506 L 708 515 L 708 521 L 703 529 L 699 544 L 678 565 L 673 567 L 669 572 L 659 575 L 649 582 L 638 584 L 626 591 L 610 593 L 593 600 L 582 602 L 556 602 L 545 599 L 530 588 L 520 571 L 518 563 L 513 558 L 506 555 L 496 557 L 477 576 L 465 593 L 463 599 L 458 604 L 456 614 L 448 622 L 444 633 L 443 642 L 452 642 L 456 633 L 457 621 L 468 610 L 483 602 L 507 602 L 520 606 L 516 609 L 494 611 L 484 619 L 476 633 L 479 642 L 484 644 L 579 644 L 584 642 L 569 639 L 564 635 L 563 630 L 550 628 L 546 626 L 543 621 L 528 617 L 526 614 L 530 611 L 541 612 L 547 619 L 564 623 L 566 628 L 593 631 L 625 630 L 631 633 L 624 639 L 613 638 L 608 642 L 613 644 L 768 644 L 774 635 L 774 622 L 772 616 L 771 592 L 765 577 L 762 559 L 755 546 L 752 533 L 746 526 L 744 517 L 738 510 L 734 499 L 718 475 L 701 456 L 698 450 L 655 412 L 649 410 L 645 405 L 639 403 L 633 397 L 623 394 L 611 386 L 602 384 L 594 378 L 581 375 L 566 368 L 553 367 L 544 364 L 531 364 L 524 366 L 520 360 L 515 358 L 449 358 L 438 360 L 429 359 L 416 366 L 414 364 L 392 369 L 386 373 L 367 378 L 357 384 L 348 386 L 341 392 L 315 405 L 300 419 L 293 422 L 267 447 L 233 490 L 230 498 L 224 504 L 219 517 L 216 519 L 212 532 L 205 543 L 203 555 L 196 570 L 194 588 L 189 599 Z M 637 624 L 644 621 L 651 621 L 653 623 L 651 626 L 641 627 Z M 722 510 L 724 514 L 724 534 L 721 540 L 715 566 L 708 575 L 706 581 L 686 602 L 683 602 L 679 608 L 670 611 L 665 617 L 659 620 L 654 615 L 659 611 L 665 611 L 666 606 L 675 600 L 698 569 L 701 559 L 707 552 L 709 533 L 715 528 L 718 515 Z M 712 489 L 713 488 L 714 490 L 713 491 Z M 402 430 L 403 435 L 394 443 L 386 459 L 381 480 L 371 490 L 315 493 L 308 489 L 333 459 L 357 441 L 377 431 L 395 428 Z M 622 414 L 627 417 L 624 422 L 618 417 Z" fill="#E08A47" fill-rule="evenodd" data-index="6"></path>
  <path d="M 747 733 L 738 730 L 732 723 L 516 724 L 515 727 L 510 731 L 492 732 L 479 744 L 475 745 L 454 763 L 449 765 L 444 771 L 438 773 L 430 780 L 420 783 L 415 788 L 408 791 L 389 793 L 382 797 L 372 797 L 367 794 L 346 789 L 342 785 L 331 780 L 325 774 L 319 771 L 307 759 L 305 754 L 298 747 L 288 732 L 197 731 L 195 743 L 198 751 L 202 754 L 207 765 L 212 769 L 214 776 L 222 786 L 224 793 L 229 798 L 233 808 L 239 813 L 243 824 L 249 831 L 252 846 L 256 853 L 262 887 L 266 896 L 269 918 L 267 931 L 262 936 L 259 943 L 251 953 L 249 960 L 243 966 L 239 976 L 233 983 L 231 989 L 226 994 L 221 1006 L 216 1012 L 219 1015 L 225 1017 L 257 1017 L 262 1019 L 295 1019 L 303 1016 L 317 1015 L 364 1016 L 372 1020 L 380 1020 L 385 1016 L 385 1012 L 378 1011 L 373 1005 L 373 1000 L 380 990 L 399 979 L 425 955 L 439 946 L 459 928 L 464 926 L 469 920 L 474 918 L 481 911 L 489 907 L 506 893 L 513 890 L 519 884 L 527 880 L 533 874 L 541 871 L 546 866 L 556 861 L 559 857 L 582 844 L 588 838 L 597 835 L 602 830 L 627 817 L 633 811 L 643 808 L 648 803 L 656 801 L 668 793 L 677 791 L 686 784 L 714 780 L 719 777 L 737 772 L 747 760 Z M 690 741 L 695 737 L 723 737 L 729 742 L 729 751 L 725 755 L 710 761 L 699 762 L 694 759 Z M 671 750 L 669 753 L 659 757 L 654 762 L 646 764 L 634 772 L 625 774 L 616 781 L 605 784 L 600 789 L 588 794 L 584 798 L 574 801 L 567 807 L 558 810 L 552 816 L 541 820 L 538 824 L 514 838 L 510 843 L 502 847 L 483 864 L 477 871 L 474 880 L 466 891 L 465 895 L 444 916 L 425 929 L 401 951 L 393 955 L 389 960 L 380 964 L 374 970 L 369 972 L 363 978 L 354 982 L 348 988 L 342 990 L 336 996 L 321 1001 L 280 1001 L 275 999 L 255 999 L 251 996 L 251 991 L 259 981 L 261 974 L 267 968 L 271 958 L 277 952 L 278 947 L 285 938 L 288 931 L 289 920 L 287 914 L 286 899 L 278 872 L 277 853 L 272 841 L 269 824 L 261 814 L 258 804 L 253 800 L 250 792 L 244 786 L 240 775 L 235 771 L 232 762 L 226 756 L 224 752 L 224 746 L 227 741 L 265 741 L 268 745 L 275 749 L 277 755 L 283 760 L 285 765 L 293 773 L 297 780 L 312 792 L 317 794 L 322 800 L 341 810 L 360 813 L 367 816 L 390 817 L 403 811 L 422 809 L 442 802 L 465 799 L 480 792 L 494 790 L 505 784 L 519 782 L 529 776 L 540 774 L 548 771 L 553 767 L 566 764 L 573 759 L 586 754 L 592 749 L 607 745 L 615 739 L 629 737 L 652 737 L 662 740 L 665 745 Z M 564 740 L 564 742 L 560 745 L 548 747 L 537 754 L 523 757 L 517 762 L 494 766 L 489 771 L 481 770 L 481 768 L 486 766 L 492 758 L 498 755 L 506 747 L 510 746 L 517 739 L 532 736 L 557 736 L 561 737 Z" fill="#8A8A8A" fill-rule="evenodd" data-index="7"></path>
  <path d="M 638 624 L 641 626 L 651 625 L 652 623 L 644 622 Z" fill="#FFFFFF" fill-rule="evenodd" data-index="8"></path>
  <path d="M 722 511 L 719 515 L 716 528 L 710 533 L 708 552 L 702 559 L 699 569 L 676 600 L 667 606 L 666 611 L 659 612 L 655 615 L 659 619 L 665 616 L 670 610 L 679 607 L 680 604 L 683 601 L 686 601 L 691 594 L 695 592 L 699 588 L 699 586 L 705 581 L 707 575 L 716 562 L 718 548 L 723 534 Z" fill="#FFFFFF" fill-rule="evenodd" data-index="9"></path>
  <path d="M 401 430 L 395 429 L 377 432 L 357 442 L 349 449 L 344 451 L 339 457 L 333 460 L 330 465 L 323 471 L 322 474 L 315 480 L 313 485 L 309 489 L 315 492 L 371 489 L 380 480 L 385 459 L 393 443 L 402 435 Z" fill="#FFFFFF" fill-rule="evenodd" data-index="10"></path>
  <path d="M 619 417 L 624 421 L 626 417 L 623 415 Z" fill="#FFFFFF" fill-rule="evenodd" data-index="11"></path>
</svg>