<svg xmlns="http://www.w3.org/2000/svg" width="230" height="238" viewBox="0 0 230 238" role="img" aria-label="Converted transparent logo">
  <title>Transparent logo</title>
  <path d="M 105 225.3 C 101.2 225.7 86.3 225.6 82 225.5 C 77.7 225.4 81 224.7 79 224.5 C 77 224.3 71.8 224.6 70 224.5 C 68.2 224.4 69.9 223.9 68 223.6 C 66.1 223.4 60.1 223.6 58.7 223 C 57.3 222.4 58 222.7 59.6 220 C 61.2 217.3 66.6 210.2 68.4 207 C 70.2 203.8 70.8 205 70.5 201 C 70.2 197 69 189.2 66.4 183 C 63.7 176.8 56.6 167.8 54.6 164 C 52.7 160.2 51.4 160.9 54.6 160 C 57.9 159.1 75.6 159.1 74 158.9 C 72.4 158.6 51 158.9 45 158.4 C 39 157.8 39.7 156.1 38 155.6 C 36.3 155.1 36 155.7 35 155.4 C 34 155 33 154 32 153.6 C 31 153.3 29.8 153.7 29 153.4 C 28.2 153 27.8 152 27 151.6 C 26.2 151.3 25 151.7 24 151.4 C 23 151 22 150 21 149.6 C 20 149.3 18.7 149.6 18 149.4 C 17.3 149.1 -15.7 148.2 16.8 148 C 49.4 147.8 180.6 147.8 213.2 148 C 245.7 148.2 212.7 149.1 212 149.4 C 211.3 149.6 210.8 149 209 149.6 C 207.2 150.3 204 152.4 201 153.4 C 198 154.4 193.2 155 191 155.6 C 188.8 156.3 190.5 156.9 188 157.4 C 185.5 157.9 178.3 158.7 176 158.8 C 173.7 158.8 173.8 157.8 174 157.9 C 174.2 158 176.4 159 177 159.5 C 177.6 160 177.4 159.9 177.5 161 C 177.6 162.1 177.8 164.6 177.4 166 C 177 167.4 176.2 168.5 175 169.4 C 173.8 170.3 171.8 171 170 171.4 C 168.2 171.8 168.3 169.7 164 171.6 C 159.7 173.5 150.7 178.5 144 182.6 C 137.3 186.7 127.8 193.9 124 196.4 C 120.2 198.9 125.2 194.4 121 197.6 C 116.8 200.8 103.1 212.3 99 215.7 C 94.9 219 97.2 217.1 96.7 218 C 96.1 218.9 94.3 220.1 95.7 221 C 97 221.9 103.4 222.9 105 223.7 C 106.6 224.4 108.8 225 105 225.3 Z M 87 140.4 C 81 140.6 59.7 140.8 54 140.4 C 48.3 140 52.4 140.4 52.5 138 C 52.6 135.6 53.9 129.2 54.6 126 C 55.3 122.8 56 120.5 56.6 119 C 57.2 117.5 57.7 118.3 58.4 117 C 59 115.7 59.2 113.6 60.6 111 C 62.1 108.4 64.4 104.6 67 101.5 C 69.6 98.4 72.3 95.5 76 92.5 C 79.7 89.5 85.5 85.5 89 83.6 C 92.5 81.8 95.2 82 97 81.4 C 98.8 80.7 98.8 80 100 79.6 C 101.2 79.2 103.7 79.3 104.1 79 C 104.6 78.7 103.1 79.2 102.6 78 C 102.2 76.8 101.4 73.7 101.5 72 C 101.6 70.3 98.4 68.4 103 67.7 C 107.6 66.9 124.4 67.4 129 67.6 C 133.6 67.8 130.1 67.3 130.4 69 C 130.6 70.7 130.9 76.3 130.5 78 C 130 79.7 126.9 78.7 127.8 79 C 128.7 79.3 132.3 78.5 136 79.6 C 139.7 80.7 145.9 83.4 150 85.6 C 154.1 87.8 157.1 89.9 160.5 93 C 163.9 96.1 169.1 101.3 170.4 104 C 171.6 106.7 169.7 110.4 168 109.3 C 166.3 108.2 163 100.9 160 97.7 C 157 94.4 152 90.9 150 89.6 C 148 88.3 148.7 90 148 89.7 C 147.3 89.4 146.4 87.9 146 87.8 C 145.6 87.7 145.4 88.6 145.7 89 C 146 89.4 146.2 88.5 148 90.3 C 149.8 92.1 154.3 97.1 156.4 100 C 158.4 102.9 159.7 105.8 160.4 108 C 161 110.2 161 111.3 160.4 113 C 159.7 114.7 158.4 116.6 156.5 118 C 154.6 119.4 151.1 120.8 149 121.4 C 146.9 122 145.5 121.3 144 121.6 C 142.5 122 141.3 123.1 140 123.4 C 138.7 123.7 137.1 123.8 136 123.4 C 134.9 123 134.2 122.2 133.6 121 C 133 119.8 133 117.2 132.4 116 C 131.8 114.8 130.9 114.2 130 113.6 C 129.1 113.1 128.5 112.6 127 112.6 C 125.5 112.6 123.7 112.5 121 113.6 C 118.3 114.8 115 116.6 111 119.6 C 107 122.6 100.5 128.4 97 131.7 C 93.5 134.9 91.7 137.9 90 139.3 C 88.3 140.8 93 140.2 87 140.4 Z M 84.5 219 C 89.5 217.3 94.5 212.7 99 209.4 C 103.5 206 108.9 201.2 111.5 199 C 114 196.8 113.5 197.4 114.4 196 C 115.3 194.6 115.1 192.8 117 190.5 C 118.9 188.3 121.3 185.8 126 182.6 C 130.7 179.5 140.2 174.2 145 171.6 C 149.8 169.1 152.7 168.7 155 167.4 C 157.3 166.1 158.8 164.7 159 163.7 C 159.2 162.7 157.5 162 156 161.6 C 154.5 161.3 153.5 160.6 150 161.6 C 146.5 162.6 137.8 166.3 135 167.6 C 132.2 168.9 135.8 168.4 133 169.4 C 130.2 170.4 121 172.6 118 173.6 C 115 174.6 116.3 175 115 175.4 C 113.7 175.7 111.3 175.3 110 175.6 C 108.7 176 108.5 177 107 177.4 C 105.5 177.7 102.5 177.3 101 177.6 C 99.5 178 99.3 179.1 98 179.4 C 96.7 179.7 95 179.8 93 179.5 C 91 179.2 88 178.2 86 177.4 C 84 176.5 82.6 175.4 81 174.4 C 79.4 173.3 78.5 173 76.7 171 C 74.8 169 72.6 164 70 162.6 C 67.4 161.2 62.6 162.3 61 162.7 C 59.4 163 59.1 162.1 60.6 165 C 62.2 167.9 67.9 173.8 70.4 180 C 72.9 186.2 74.7 198 75.5 202 C 76.3 206 75.9 202.7 75.4 204 C 74.9 205.3 73.8 207.7 72.4 210 C 70.9 212.3 67.3 216.4 66.8 218 C 66.2 219.6 66 219.3 69 219.5 C 72 219.7 79.5 220.7 84.5 219 Z M 111 60.4 C 105.1 60.5 84.2 60 78 59.5 C 71.8 59 75.3 58 74 57.6 C 72.7 57.3 73 58.8 70 57.4 C 67 56 59.7 52 56 49.4 C 52.3 46.7 49.9 43.7 48 41.5 C 46.1 39.2 45.2 38.1 44.6 36 C 44.1 33.9 44.1 30.7 44.6 29 C 45.2 27.3 46.8 26.5 48 25.6 C 49.2 24.7 47.7 24 52 23.6 C 56.3 23.3 69.3 23.2 74 23.5 C 78.7 23.8 78.2 25 80 25.4 C 81.8 25.7 83.7 25.3 85 25.6 C 86.3 26 86.8 27 88 27.4 C 89.2 27.7 90.8 27.3 92 27.6 C 93.2 28 93.2 28.7 95 29.4 C 96.8 30 101.3 31 103 31.6 C 104.7 32.3 104.2 33 105 33.4 C 105.8 33.7 107.2 33.3 108 33.6 C 108.8 34 108.8 34.8 110 35.4 C 111.2 36 113 36.7 115 37.4 C 117 38 119 38.9 122 39.4 C 125 39.9 127.2 40.5 133 40.5 C 138.8 40.5 152.3 39.9 157 39.4 C 161.7 38.9 159.5 38 161 37.6 C 162.5 37.3 162.8 38.1 166 37.4 C 169.2 36.7 177.3 34.3 180 33.4 C 182.7 32.4 181.3 32 182 31.6 C 182.7 31.3 183.1 32 184 31.4 C 184.9 30.8 187.1 29 187.2 28 C 187.4 27 188.2 26.4 185 25.6 C 181.8 24.9 171.4 24.5 168 23.4 C 164.6 22.3 164.3 20.6 164.5 19 C 164.7 17.4 166.6 15.2 169 13.6 C 171.4 12.1 175.2 10.5 179 9.6 C 182.8 8.8 189.1 8.4 192 8.5 C 194.9 8.6 195.7 9.5 196.3 10 C 197 10.5 198.4 10.7 196 11.3 C 193.6 11.9 185.1 12.8 182 13.6 C 178.9 14.4 178.3 15.4 177.6 16 C 177 16.6 176.4 16.7 178 17.3 C 179.6 17.9 184.2 18.6 187 19.6 C 189.8 20.7 193.3 22.4 195 23.6 C 196.7 24.8 197.1 25.8 197.4 27 C 197.6 28.2 196.9 29.9 196.4 31 C 195.8 32.1 195.7 32.3 194 33.4 C 192.3 34.4 187.8 36.7 186 37.4 C 184.2 38.1 183.8 37.3 183 37.6 C 182.2 38 182 39 181 39.4 C 180 39.7 178.2 39.3 177 39.6 C 175.8 40 177.8 40.6 174 41.4 C 170.2 42.2 162.7 44.1 154 44.5 C 145.3 44.9 130.8 44.4 122 43.5 C 113.2 42.6 107.2 41 101 39.4 C 94.8 37.7 90 34.5 85 33.5 C 80 32.5 74.2 33.3 71 33.6 C 67.8 34 67.2 34.9 66 35.6 C 64.8 36.4 64 37.2 63.6 38 C 63.3 38.8 62.9 39.2 64 40.5 C 65.1 41.7 67.7 44.2 70 45.4 C 72.3 46.6 76.2 47 78 47.6 C 79.8 48.3 79.8 49 81 49.4 C 82.2 49.7 83.7 49.3 85 49.6 C 86.3 50 87.5 51 89 51.4 C 90.5 51.7 92.5 51.3 94 51.6 C 95.5 52 96.5 53 98 53.4 C 99.5 53.7 101.7 53.3 103 53.6 C 104.3 54 105 55 106 55.4 C 107 55.7 107.8 55.2 109 55.6 C 110.2 56.1 112.6 57.4 113.3 58 C 114.1 58.6 113.7 58.6 113.3 59 C 113 59.4 116.9 60.3 111 60.4 Z M 157 64.4 C 153.5 64.5 140.7 64.6 138 64.1 C 135.3 63.7 140.2 62.1 141 61.6 C 141.8 61.2 142.2 61.8 143 61.4 C 143.8 61 145.4 60.1 146 59.3 C 146.6 58.6 146.7 57.6 146.3 57 C 146 56.4 145.7 56 144 55.6 C 142.3 55.2 139 54.7 136 54.5 C 133 54.3 128.9 54.7 126 54.5 C 123.1 54.2 119.8 53.5 118.8 53 C 117.8 52.5 118.8 51.9 120 51.6 C 121.2 51.4 124.2 51.7 126 51.4 C 127.8 51 129.2 50 131 49.6 C 132.8 49.3 135 49.7 137 49.4 C 139 49 140.7 48 143 47.6 C 145.3 47.3 148.7 47.7 151 47.4 C 153.3 47 154 45.8 157 45.5 C 160 45.2 166.5 45.7 169 45.5 C 171.5 45.3 168.5 44.5 172 44.5 C 175.5 44.5 186.3 44.9 190 45.6 C 193.7 46.4 193.6 47.8 194.4 49 C 195.1 50.2 195.1 51.6 194.4 53 C 193.6 54.4 191.4 56.3 190 57.4 C 188.6 58.4 189.3 58.4 186 59.4 C 182.7 60.4 174.5 62.7 170 63.4 C 165.5 64.1 161.2 63.3 159 63.5 C 156.8 63.7 160.5 64.3 157 64.4 Z M 96.5 174 C 97.8 173.8 99.2 174 101 173.4 C 102.8 172.8 104 172.4 107 170.4 C 110 168.4 116.9 163.1 119 161.3 C 121.1 159.6 122.3 160.3 119.3 160 C 116.3 159.7 104.6 159.7 101 159.5 C 97.4 159.2 99.2 158.5 98 158.5 C 96.8 158.5 96 159.3 94 159.5 C 92 159.7 88 159.7 86 159.5 C 84 159.3 83.3 158.6 82 158.5 C 80.7 158.4 79.1 158.4 78 158.6 C 76.9 158.9 75.8 159.2 75.6 160 C 75.5 160.8 75.4 161.6 77 163.5 C 78.6 165.4 82.3 169.6 85 171.4 C 87.7 173.2 91.1 173.9 93 174.4 C 94.9 174.8 95.2 174.2 96.5 174 Z M 181 140.4 C 176.4 140.6 159.7 140.7 155 140.5 C 150.3 140.3 153 139.5 152.6 139 C 152.3 138.5 152.4 137.9 153 137.6 C 153.6 137.4 154.4 138.2 156 137.4 C 157.6 136.6 160.1 135.2 162.5 133 C 164.9 130.8 168.7 126.8 170.4 124 C 172.1 121.2 172.2 118.2 172.5 116 C 172.8 113.8 172.7 112.2 172.4 111 C 172 109.8 170.7 109.9 170.5 109 C 170.2 108.1 170 105 171 105.7 C 172 106.4 174.8 110.1 176.4 113 C 177.9 115.9 179.7 120.7 180.4 123 C 181.1 125.3 180.3 125.5 180.6 127 C 181 128.5 182.2 130 182.5 132 C 182.8 134 182.6 137.6 182.4 139 C 182.1 140.4 185.6 140.1 181 140.4 Z M 151 137.4 C 147.8 138.1 141.8 137.7 139 137.4 C 136.2 137 135.2 136 134 135.4 C 132.8 134.8 132.8 134 132 133.6 C 131.2 133.3 130 133.7 129 133.4 C 128 133 128 131.9 126 131.6 C 124 131.3 119 131.4 117 131.6 C 115 131.9 114.6 133.1 114 133.2 C 113.4 133.2 113.2 133 113.7 132 C 114.1 131 115.2 128.7 116.6 127 C 118 125.3 120.8 122.5 122 121.6 C 123.2 120.7 123.3 121.3 124 121.6 C 124.7 121.9 125.2 122.2 126 123.5 C 126.8 124.8 128 128 129 129.3 C 130 130.7 130.5 130.9 132 131.4 C 133.5 131.9 134 133.2 138 132.5 C 142 131.8 152.7 128.5 156 127.4 C 159.3 126.2 157.3 126 158 125.6 C 158.7 125.2 159 126.3 160.5 125 C 162 123.7 165.7 118.9 167 117.7 C 168.3 116.4 167.8 117.4 168 117.7 C 168.2 117.9 168.6 118.4 168.4 119 C 168.1 119.6 166.9 120.3 166.6 121 C 166.3 121.7 167.1 121.6 166.4 123 C 165.6 124.4 163.4 127.7 162 129.5 C 160.6 131.2 159.8 132 158 133.4 C 156.2 134.7 154.2 136.7 151 137.4 Z M 93.5 107 C 95.9 106.8 94.5 107.7 95.3 106 C 96.2 104.3 97.6 99 98.6 97 C 99.6 95 101 94.7 101.4 94 C 101.8 93.3 102.4 92.7 101 92.7 C 99.6 92.6 95.4 92.7 93 93.6 C 90.6 94.5 88.8 95.9 86.5 98 C 84.3 100.1 80.8 104.5 79.6 106 C 78.5 107.5 79.4 106.8 79.7 107 C 79.9 107.2 78.7 107.5 81 107.5 C 83.3 107.5 91.1 107.2 93.5 107 Z M 109.5 78 C 112.9 77.9 123.2 78.5 126 77.5 C 128.8 76.5 129.5 73 126.3 72 C 123.2 71 110.5 71.5 107 71.6 C 103.5 71.8 105.8 71.9 105.6 73 C 105.4 74.1 105 77.2 105.6 78 C 106.3 78.8 106.1 78.1 109.5 78 Z M 134 140.4 C 131.3 140.6 121.7 140.8 119 140.4 C 116.3 140 117.3 139.1 117.6 138 C 118 136.9 119.6 134.4 121 133.6 C 122.4 132.9 124.8 133.3 126 133.6 C 127.2 133.9 126.6 134.6 128 135.4 C 129.4 136.1 133.3 137.4 134.5 138 C 135.7 138.6 135.3 138.6 135.2 139 C 135.1 139.4 136.7 140.1 134 140.4 Z M 120.5 168 C 123 167.2 131.5 164.4 134 163.4 C 136.5 162.4 136.5 162.3 135.2 162 C 133.8 161.7 128.7 160.6 126 161.6 C 123.3 162.6 119.8 166.9 118.8 168 C 117.9 169.1 117.9 168.8 120.5 168 Z M 169.5 166 C 170.6 165.6 172 164.7 172.4 164 C 172.7 163.3 172.8 162.3 171.5 162 C 170.2 161.7 165.8 161.7 164.7 162 C 163.5 162.3 164.4 163.3 164.6 164 C 164.8 164.7 165.2 166 166 166.3 C 166.8 166.7 168.4 166.4 169.5 166 Z M 170 111.3 C 169.7 111.5 168.8 111.3 168.7 111 C 168.5 110.7 168.7 109.7 169 109.5 C 169.3 109.3 170.5 109.7 170.7 110 C 170.8 110.3 170.3 111.2 170 111.3 Z" fill="#E38947" fill-rule="evenodd" data-index="0"></path>

</svg>
