<svg xmlns="http://www.w3.org/2000/svg" viewBox="0 0 120 120" fill="none">
  <!-- Steam wisps: cream so they show on the dark navbar -->
  <path d="M47 32 Q44 26 47 20 Q50 14 47 8" stroke="#FAF7F2" stroke-width="2.4" stroke-linecap="round" fill="none"/>
  <path d="M60 30 Q57 24 60 18 Q63 12 60 6" stroke="#FAF7F2" stroke-width="2.4" stroke-linecap="round" fill="none"/>
  <path d="M73 32 Q70 26 73 20 Q76 14 73 8" stroke="#FAF7F2" stroke-width="2.4" stroke-linecap="round" fill="none"/>

  <!-- Cloche dome -->
  <path d="M22 70 Q22 40 60 40 Q98 40 98 70 Z" fill="#E8925A"/>

  <!-- Knob / handle -->
  <ellipse cx="60" cy="40" rx="6" ry="4" fill="#E8925A"/>
  <ellipse cx="60" cy="38" rx="4" ry="2.8" fill="#FAF7F2" opacity="0.35"/>

  <!-- Tray -->
  <rect x="16" y="70" width="88" height="6.5" rx="3.2" fill="#E8925A"/>

  <!-- Hand / fingers -->
  <!-- Palm -->
  <rect x="43" y="76.5" width="34" height="10" rx="5" fill="#E8925A"/>
  <!-- Fingers -->
  <rect x="45" y="85.5" width="5.5" height="15" rx="2.7" fill="#E8925A"/>
  <rect x="53.5" y="86.5" width="5.5" height="16" rx="2.7" fill="#E8925A"/>
  <rect x="62" y="86.5" width="5.5" height="16" rx="2.7" fill="#E8925A"/>
  <rect x="70.5" y="85.5" width="5.5" height="15" rx="2.7" fill="#E8925A"/>
  <!-- Thumb -->
  <path d="M43 82 Q36 79 34 83.5 Q32 88 37 90 Q41 91 43 87" fill="#E8925A"/>

  <!-- Subtle highlight on dome -->
  <path d="M36 58 Q40 50 60 48" stroke="#FAF7F2" stroke-width="1.2" stroke-linecap="round" fill="none" opacity="0.25"/>
</svg>
